<?xml version="1.0" encoding="UTF-8"?>
<!DOCTYPE svg PUBLIC "-//W3C//DTD SVG 1.1//EN" "http://www.w3.org/Graphics/SVG/1.1/DTD/svg11.dtd">
<!-- Creator: CorelDRAW -->
<svg xmlns="http://www.w3.org/2000/svg" xml:space="preserve" width="6.75887in" height="2.10302in" version="1.1" style="shape-rendering:geometricPrecision; text-rendering:geometricPrecision; image-rendering:optimizeQuality; fill-rule:evenodd; clip-rule:evenodd"
viewBox="0 0 4169.88 1297.46"
 xmlns:xlink="http://www.w3.org/1999/xlink"
 xmlns:xodm="http://www.corel.com/coreldraw/odm/2003">
 <defs>
  <style type="text/css">
   <![CDATA[
    .fil5 {fill:#2A4B5E}
    .fil3 {fill:#3496D5}
    .fil1 {fill:#43ADF1}
    .fil2 {fill:#BB9910}
    .fil4 {fill:#EEC935}
    .fil0 {fill:#FFD73C}
    .fil6 {fill:#373435;fill-rule:nonzero}
   ]]>
  </style>
 </defs>
 <g id="Layer_x0020_1">
  <metadata id="CorelCorpID_0Corel-Layer"/>
  <g id="_1972691364080">
   <g>
    <path class="fil0" d="M293.35 1097.96l705.38 0c59.27,0 123.2,-10.75 171.12,-40.7 21.36,-13.35 39.65,-30.46 54.25,-50.63 66.52,-91.89 13.16,-250.04 -149.27,-250.04 -38.13,0 -80.05,13.83 -110.8,22.87 -190.19,56.57 -369.82,113.79 -557.3,176.87 -75.8,23.2 -135.99,47.15 -216.43,30.83 -42.43,-8.61 -90.24,-41.5 -90.24,-88.67 0,-71.96 51.58,-117.42 101.74,-159.85 145.29,-122.87 304.66,-239.14 457.79,-352.12 31.66,-23.35 71.9,-53.01 91.92,-70.48 43.88,-38.3 101.23,-90.8 101.23,-153.78 0,-41.56 -25.65,-84.59 -52.94,-111.58 -76.09,-75.22 -173.35,-62.76 -246.81,11.3l-31.08 34.73c-9.7,12.29 -18.44,22.68 -28.16,35.6 -75.05,99.22 -144.65,200.12 -218.57,299.66 -68.63,97.89 -141.48,197.57 -206.34,297.51 -148.14,228.23 -49.79,368.49 224.53,368.49z"/>
    <path class="fil1" d="M167.91 912.88c0,37 91.03,8.67 113.95,2.9 36.43,-9.16 108.57,-32.49 145.43,-43.77l107.96 -35.99c70.29,-23.26 141.42,-50.37 211.33,-74.52 72.88,-28.35 241.29,-82.81 272.45,-159.41 33.5,-82.32 -16.54,-238.29 -119.01,-238.29 -81.24,0 -160.09,69.37 -223.31,115.48 -146.83,109.1 -315.1,234.99 -459.1,364.26 -22.94,20.59 -49.7,52.91 -49.7,69.35z"/>
   </g>
   <g>
    <polygon class="fil2" points="2694,489.24 2744.69,649.64 2820.51,553.16 3294.59,139.33 3288.28,141.54 "/>
    <polygon class="fil1" points="2925.58,461.44 2970.79,664.37 3299.95,137.58 3294.59,139.33 "/>
    <polygon class="fil0" points="2541.1,385.87 2826.73,412.44 3288.28,141.54 "/>
    <polygon class="fil3" points="2820.51,553.16 2970.79,664.37 2926.07,461.01 "/>
    <polygon class="fil4" points="2694,489.24 2826.94,412.32 2541.1,385.87 "/>
    <polygon class="fil5" points="2744.69,649.64 2853.59,577.63 2820.51,553.16 "/>
   </g>
   <g>
    <path class="fil6" d="M1701.96 997.74l-0.83 42.52c-21.47,15.28 -44.04,27.11 -67.7,35.64 -23.67,8.39 -48.44,12.66 -74.31,12.66 -58.35,0 -105.41,-18.16 -141.19,-54.49 -35.78,-36.33 -53.67,-85.87 -53.67,-148.62 0,-60 15.96,-108.16 47.89,-144.49 34.13,-39.08 81.19,-58.62 141.19,-58.62 48.99,0 88.35,16.24 118.07,48.85 33.03,35.92 49.54,87.38 49.54,154.26l-167.61 -2.48 -116.42 0c0,49.26 11.28,89.31 33.85,120 25.32,33.99 61.65,50.92 108.99,50.92 25.32,0 49.81,-6.47 73.48,-19.54 15.96,-8.67 32.2,-20.92 48.71,-36.6zm-265.04 -145.32l219.63 0c0,-42.66 -6.88,-75.82 -20.64,-99.63 -17.07,-29.86 -44.59,-44.86 -82.57,-44.86 -36.88,0 -66.05,15.27 -87.52,45.69 -19.27,27.11 -28.9,60 -28.9,98.8z"/>
    <path class="fil6" d="M1879.47 461.88l0 369.9c0,7.71 0,13.21 0,16.51 0,5.5 1.65,9.08 4.96,10.73 6.05,3.3 15.14,0.55 27.25,-8.26 8.81,-6.05 23.67,-19.54 44.59,-40.46l51.19 -52.02 64.4 -71.01 33.03 2.48 32.2 -2.48 0 5.78c-37.98,31.93 -71.01,60.27 -99.08,85.04 -33.58,29.17 -61.1,53.94 -82.57,74.31l194.03 226.23 0 4.13 -40.59 -3.3 -41.42 2.48c-14.31,-18.71 -32.06,-40.46 -52.98,-65.23 -15.96,-18.71 -51.05,-58.9 -105.13,-120.55 -7.84,-8.81 -14.17,-13.21 -19.13,-13.21 -7.16,0 -10.73,10.18 -10.73,30.55l0 169.26 -32.61 -3.3 -32.62 2.48 0 -620.08 32.62 2.48 32.61 -2.48z"/>
    <path class="fil6" d="M2502.85 821.04l0 191.56c0,8.26 0,16.24 0,23.94 1.65,11.56 9.08,17.34 22.29,17.34 7.16,0 15.14,-1.1 23.94,-3.3l0 18.17c-2.75,1.1 -6.74,2.61 -11.83,4.54 -5.23,1.93 -11.01,3.44 -17.2,4.54 -6.33,1.1 -13.9,1.65 -22.57,1.65 -15.83,0 -28.9,-3.85 -38.95,-11.56 -10.05,-7.71 -16.24,-20.64 -18.44,-38.81l-7.43 7.43c-34.82,34.68 -75.69,52.02 -122.61,52.02 -30.41,0 -56.42,-9.36 -77.89,-28.07 -21.61,-18.71 -32.34,-42.94 -32.34,-72.66 0,-41.83 15.69,-71.83 47.06,-90 19.26,-11.01 54.49,-20.64 105.69,-28.9 35.78,-6.06 58.35,-11.56 67.7,-16.51 13.21,-7.16 19.82,-20.09 19.82,-38.8 0,-30.83 -8.39,-54.63 -25.18,-71.42 -16.79,-16.79 -40.6,-25.18 -71.42,-25.18 -26.42,0 -49.54,7.16 -69.36,21.47 -15.41,11.01 -25.04,22.84 -28.9,35.5l-9.08 0 0 -46.24c21.47,-14.86 43.07,-26.15 64.81,-33.85 21.74,-7.71 44.45,-11.56 68.12,-11.56 89.17,0 133.76,46.24 133.76,138.71zm-66.05 175.87l0 -120.55 -28.9 5.78c-47.89,9.36 -78.16,16.79 -90.82,22.29 -33.03,14.86 -49.54,38.81 -49.54,71.83 0,25.32 7.16,44.59 21.47,57.8 14.31,13.21 34.13,19.82 59.45,19.82 10.46,0 22.02,-3.16 34.68,-9.49 12.66,-6.33 23.12,-13.62 31.38,-21.88 4.4,-3.85 9.22,-8.39 14.45,-13.62 5.23,-5.23 7.85,-9.22 7.85,-11.97z"/>
    <path class="fil6" d="M2639.91 1082.78l0 -395.5 33.03 2.48 33.03 -3.3 0 83.39 4.13 -9.91c14.86,-23.67 30.27,-41.83 46.24,-54.49 19.26,-15.41 38.53,-23.12 57.8,-23.12 11.01,0 19.54,1.37 25.6,4.13l-11.56 69.36c-2.75,-0.55 -8.53,-2.89 -17.34,-7.02 -8.81,-4.13 -15.96,-6.19 -21.47,-6.19 -9.36,0 -18.99,1.79 -28.9,5.37 -9.91,3.58 -17.89,8.67 -23.94,15.28 -12.66,14.86 -20.92,30 -24.77,45.41 -3.85,15.41 -5.78,35.23 -5.78,59.45l0 213.85 -33.03 -2.48 -33.03 3.3z"/>
    <polygon class="fil6" points="2997.43,687.29 2997.43,1082.78 2964.4,1079.48 2931.37,1081.96 2931.37,687.29 2964.4,689.76 "/>
    <path class="fil6" d="M3287.24 1075.35c-85.32,0 -127.98,32.34 -127.98,97.02 0,32.34 10.87,56.97 32.61,74.04 21.74,16.92 50.5,25.46 86.28,25.46 35.23,0 64.4,-7.71 87.52,-22.98 28.62,-18.71 42.93,-46.1 42.93,-82.29 0,-30.14 -7.16,-52.29 -21.47,-66.6 -16.51,-16.38 -49.81,-24.63 -99.91,-24.63zm175.04 -388.89l0 31.38 -90.83 -7.43c18.17,13.62 32.2,29.45 42.11,47.48 9.91,17.89 14.86,38.12 14.86,60.41 0,41.97 -17.34,74.03 -52.02,96.33 -31.38,20.23 -72.66,30.27 -123.85,30.27 -4.95,0 -9.36,0 -13.21,0 -12.66,0 -22.57,2.2 -29.72,6.61 -11.01,6.6 -16.51,17.89 -16.51,33.85 0,16.51 6.06,27.25 18.17,32.2 12.11,4.96 32.47,7.43 61.1,7.43l52.84 0c48.44,0 84.36,9.22 107.75,27.66 23.39,18.44 35.09,45.82 35.09,82.15 0,48.44 -19.13,87.66 -57.38,117.66 -38.26,30 -89.03,45 -152.34,45 -38.53,0 -71.83,-9.36 -99.91,-28.07 -33.03,-22.02 -49.54,-53.12 -49.54,-93.3 0,-28.62 7.57,-51.19 22.71,-67.7 15.14,-16.51 36.19,-27.25 63.16,-32.2l0 -6.6c-19.82,-3.3 -33.16,-10.6 -40.04,-21.88 -6.88,-11.28 -10.32,-26.28 -10.32,-45 0,-17.61 5.51,-32.48 16.51,-44.59 8.81,-9.91 22.29,-18.71 40.46,-26.42 -26.42,-12.11 -45.96,-26.97 -58.62,-44.59 -14.31,-19.82 -21.47,-44.31 -21.47,-73.48 0,-41.84 12.66,-73.76 37.98,-95.78 27.52,-23.67 70.46,-35.5 128.8,-35.5l114.77 4.13c5.5,0 10.32,0 14.45,0 4.13,0 7.57,0 10.32,0 5.51,0 11.7,0 18.58,0 6.88,0 12.25,0 16.1,0zm-278.25 126.33c0,31.37 7.71,57.93 23.12,79.68 15.41,21.74 37.71,32.61 66.88,32.61 28.62,0 51.47,-11.01 68.53,-33.03 15.41,-19.82 23.12,-44.86 23.12,-75.14 0,-35.23 -6.33,-61.92 -18.99,-80.09 -14.86,-21.47 -37.98,-32.2 -69.36,-32.2 -28.62,0 -51.33,10.05 -68.12,30.14 -16.79,20.09 -25.18,46.1 -25.18,78.03z"/>
    <path class="fil6" d="M3833 821.04l0 191.56c0,8.26 0,16.24 0,23.94 1.65,11.56 9.08,17.34 22.29,17.34 7.16,0 15.14,-1.1 23.94,-3.3l0 18.17c-2.75,1.1 -6.74,2.61 -11.83,4.54 -5.23,1.93 -11.01,3.44 -17.2,4.54 -6.33,1.1 -13.9,1.65 -22.57,1.65 -15.83,0 -28.9,-3.85 -38.95,-11.56 -10.05,-7.71 -16.24,-20.64 -18.44,-38.81l-7.43 7.43c-34.82,34.68 -75.69,52.02 -122.61,52.02 -30.41,0 -56.42,-9.36 -77.89,-28.07 -21.61,-18.71 -32.34,-42.94 -32.34,-72.66 0,-41.83 15.69,-71.83 47.06,-90 19.26,-11.01 54.49,-20.64 105.69,-28.9 35.78,-6.06 58.35,-11.56 67.7,-16.51 13.21,-7.16 19.82,-20.09 19.82,-38.8 0,-30.83 -8.39,-54.63 -25.18,-71.42 -16.79,-16.79 -40.6,-25.18 -71.42,-25.18 -26.42,0 -49.54,7.16 -69.36,21.47 -15.41,11.01 -25.04,22.84 -28.9,35.5l-9.08 0 0 -46.24c21.47,-14.86 43.07,-26.15 64.81,-33.85 21.74,-7.71 44.45,-11.56 68.12,-11.56 89.17,0 133.76,46.24 133.76,138.71zm-66.05 175.87l0 -120.55 -28.9 5.78c-47.89,9.36 -78.16,16.79 -90.82,22.29 -33.03,14.86 -49.54,38.81 -49.54,71.83 0,25.32 7.16,44.59 21.47,57.8 14.31,13.21 34.13,19.82 59.45,19.82 10.46,0 22.02,-3.16 34.68,-9.49 12.66,-6.33 23.12,-13.62 31.38,-21.88 4.4,-3.85 9.22,-8.39 14.45,-13.62 5.23,-5.23 7.85,-9.22 7.85,-11.97z"/>
    <path class="fil6" d="M3970.06 1082.78l0 -395.5 33.03 2.48 33.03 -3.3 0 83.39 4.13 -9.91c14.86,-23.67 30.27,-41.83 46.24,-54.49 19.26,-15.41 38.53,-23.12 57.8,-23.12 11.01,0 19.54,1.37 25.6,4.13l-11.56 69.36c-2.75,-0.55 -8.53,-2.89 -17.34,-7.02 -8.81,-4.13 -15.96,-6.19 -21.47,-6.19 -9.36,0 -18.99,1.79 -28.9,5.37 -9.91,3.58 -17.89,8.67 -23.94,15.28 -12.66,14.86 -20.92,30 -24.77,45.41 -3.85,15.41 -5.78,35.23 -5.78,59.45l0 213.85 -33.03 -2.48 -33.03 3.3z"/>
   </g>
  </g>
 </g>
</svg>
